<svg width="430" height="110" viewBox="0 0 430 110" fill="none" xmlns="http://www.w3.org/2000/svg">
  <g transform="translate(0 12)">
    <path d="M16 0H58C66.8 0 74 7.2 74 16V31H40C34.5 31 30 35.5 30 41V54H16C7.2 54 0 46.8 0 38V16C0 7.2 7.2 0 16 0Z" fill="#8A19FF"/>
    <path d="M0 61H34C39.5 61 44 56.5 44 51V38H58C66.8 38 74 45.2 74 54V76C74 84.8 66.8 92 58 92H16C7.2 92 0 84.8 0 76V61Z" fill="#FF9D18"/>
    <rect x="44" y="31" width="18" height="18" rx="5" fill="#07101C"/>
    <rect x="14" y="44" width="18" height="18" rx="5" fill="#07101C"/>
  </g>

  <g transform="translate(95 20)">
    <text x="0" y="34" font-family="Inter, Arial, sans-serif" font-size="31" font-weight="850" fill="#F7FBFF" letter-spacing="-1.2">QuanVerse</text>
    <text x="0" y="62" font-family="Inter, Arial, sans-serif" font-size="13" font-weight="900" fill="#16F0FF" letter-spacing="3.2">AIOT MASTERY</text>
  </g>
</svg>
